<svg width="6" height="9" viewBox="0 0 6 9" fill="none" xmlns="http://www.w3.org/2000/svg">
<path d="M6 4.50199C5.99696 4.59462 5.97565 4.67931 5.93607 4.75607C5.8965 4.83282 5.83562 4.90693 5.75342 4.97839L1.17808 8.82929C1.04718 8.9431 0.885844 9 0.694063 9C0.566209 9 0.450532 8.97353 0.347032 8.9206C0.240487 8.86767 0.156773 8.79621 0.0958896 8.70622C0.0319629 8.61623 -4.34495e-07 8.51566 -4.24777e-07 8.4045C-4.10431e-07 8.24041 0.0715366 8.09616 0.214611 7.97177L4.3516 4.50596L0.214612 1.03617C0.0715372 0.909131 2.43099e-07 0.764888 2.57213e-07 0.603441C2.67163e-07 0.489634 0.0319636 0.387738 0.0958903 0.297751C0.156773 0.207764 0.240487 0.136304 0.347032 0.0833707C0.450533 0.0277905 0.56621 4.78637e-07 0.694064 4.89815e-07C0.885845 5.06581e-07 1.04718 0.0582271 1.17808 0.174681L5.75343 4.02559C5.83866 4.09704 5.90107 4.17115 5.94064 4.24791C5.98021 4.32731 6 4.412 6 4.50199Z" fill="#007AFF"/>
</svg>
