<svg width="28" height="28" viewBox="0 0 28 28" fill="none" xmlns="http://www.w3.org/2000/svg">
<path d="M15.2374 0.512563C14.554 -0.170854 13.446 -0.170854 12.7626 0.512563L0.512563 12.7626C-0.170854 13.446 -0.170854 14.554 0.512563 15.2374C1.19598 15.9209 2.30402 15.9209 2.98744 15.2374L3.5 14.7249V26.25C3.5 27.2165 4.2835 28 5.25 28H8.75C9.7165 28 10.5 27.2165 10.5 26.25V22.75C10.5 21.7835 11.2835 21 12.25 21H15.75C16.7165 21 17.5 21.7835 17.5 22.75V26.25C17.5 27.2165 18.2835 28 19.25 28H22.75C23.7165 28 24.5 27.2165 24.5 26.25V14.7249L25.0126 15.2374C25.696 15.9209 26.804 15.9209 27.4874 15.2374C28.1709 14.554 28.1709 13.446 27.4874 12.7626L15.2374 0.512563Z" fill="black"/>
</svg>
