<svg width="31" height="31" viewBox="0 0 31 31" fill="none" xmlns="http://www.w3.org/2000/svg">
<path d="M4.79939 24.528C7.9597 22.7417 11.6108 21.7222 15.5 21.7222C19.3892 21.7222 23.0403 22.7417 26.2006 24.528M20.1667 12.3889C20.1667 14.9662 18.0773 17.0556 15.5 17.0556C12.9227 17.0556 10.8333 14.9662 10.8333 12.3889C10.8333 9.81156 12.9227 7.72222 15.5 7.72222C18.0773 7.72222 20.1667 9.81156 20.1667 12.3889ZM29.5 15.5C29.5 23.232 23.232 29.5 15.5 29.5C7.76801 29.5 1.5 23.232 1.5 15.5C1.5 7.76801 7.76801 1.5 15.5 1.5C23.232 1.5 29.5 7.76801 29.5 15.5Z" stroke="black" stroke-width="3" stroke-linecap="round" stroke-linejoin="round"/>
</svg>
