<svg width="164" height="92" viewBox="0 0 164 92" fill="none" xmlns="http://www.w3.org/2000/svg">
<path d="M15.5407 76.333C15.3175 77.3105 15.1382 78.1546 15.0042 78.8655C14.8703 79.5766 14.8047 80.2452 14.8047 80.8674C14.805 82.4224 15.3392 83.668 16.4108 84.6011C17.5271 85.5342 19.158 86.0006 21.301 86.0008C22.8641 86.0008 24.139 85.7333 25.1216 85.2C26.1485 84.6668 26.9759 83.9565 27.601 83.0679C28.2709 82.179 28.7844 81.1538 29.1417 79.9983C29.5434 78.8433 29.878 77.6213 30.1459 76.333L35.8408 49.1331H41.9347L36.109 76.4665C35.6625 78.5994 35.0143 80.5994 34.166 82.4657C33.3174 84.3323 32.0873 85.9783 30.4795 87.4005C28.9168 88.822 26.8854 89.9546 24.3856 90.7989C21.8847 91.5988 18.7795 92 15.0729 92C9.93697 92 6.13952 91.177 3.68319 89.5326C1.22723 87.8437 0 85.2647 0 81.7984C0.000112036 80.2433 0.200158 78.2663 0.601871 75.8675C1.00374 73.468 1.51744 70.8675 2.14253 68.0682L6.22805 49.1331H21.4351L15.5407 76.333ZM64.3707 49.1331C66.916 49.1331 69.2393 49.2668 71.3381 49.5335C73.4362 49.8001 75.2434 50.3354 76.7614 51.135C78.2799 51.935 79.4652 53.0906 80.3138 54.6017C81.1618 56.068 81.5861 58.0448 81.5862 60.5326C81.5862 62.8436 81.2071 65.0451 80.4479 67.134C79.7333 69.1782 78.5479 70.9789 76.8955 72.5343C75.2879 74.0448 73.1884 75.2458 70.5988 76.1345C68.009 77.0229 64.861 77.4657 61.1553 77.4658H57.3347L54.3221 91.4662H39.851L48.8955 49.1331H64.3707ZM142.382 48.1337C145.125 48.135 147.349 50.3509 147.35 53.0816V54.9077H149.251C151.994 54.9084 154.221 57.1242 154.223 59.8555V61.6816H156.123C158.867 61.6824 161.094 63.8981 161.095 66.6294V72.9705C161.095 75.7023 158.867 77.9175 156.123 77.9183H154.223V79.7444C154.222 82.4763 151.995 84.6915 149.251 84.6922H147.35V86.5151C147.35 89.2472 145.126 91.4617 142.382 91.4629H140.478C137.734 91.4621 135.509 89.2475 135.509 86.5151V73.4034H124.708C124.693 73.4036 124.677 73.4065 124.663 73.4066H112.991V86.5183C112.99 89.2495 110.766 91.4648 108.023 91.4662H106.119C103.375 91.4657 101.151 89.25 101.15 86.5183V84.6955H99.2498C96.5059 84.6955 94.2798 82.4789 94.2778 79.7477V77.9183H92.3774C89.6327 77.9183 87.4061 75.7028 87.4054 72.9705V66.6294C87.4067 63.8976 89.6331 61.6817 92.3774 61.6816H94.2778V59.8588C94.2781 57.1261 96.5049 54.9109 99.2498 54.9109H101.15V53.0848C101.151 50.3526 103.375 48.1375 106.119 48.137H108.023C110.766 48.1383 112.991 50.3531 112.991 53.0848V66.1998H123.102C123.117 66.1996 123.133 66.1966 123.148 66.1965H135.509V53.0816C135.511 50.3506 137.735 48.1345 140.478 48.1337H142.382ZM106.119 86.5183H108.023V53.0848H106.119V86.5183ZM140.478 86.5151H142.382V53.0816H140.478V86.5151ZM99.2498 79.7477H101.15V59.8588H99.2498V79.7477ZM147.35 79.7444H149.251V59.8555H147.35V79.7444ZM58.2735 73.1983H61.3548C62.6947 73.1983 63.8112 72.6428 64.7044 71.5317C65.642 70.4207 66.4006 69.0656 66.981 67.466C67.6063 65.8661 68.0542 64.1994 68.3222 62.4661C68.59 60.7337 68.7244 59.2234 68.7245 57.935C68.7245 56.7353 68.5243 55.7336 68.1226 54.9337C67.7207 54.0894 66.8486 53.6676 65.5091 53.6675H62.4932L58.2735 73.1983ZM92.3774 72.9705H94.2778V66.6294H92.3774V72.9705ZM154.223 72.9705H156.123V66.6294H154.223V72.9705ZM56.8932 15.4001C61.3584 15.4001 64.7087 16.0898 66.9418 17.4671C69.2195 18.8448 70.36 21.0018 70.36 23.935C70.3599 25.1347 70.1807 26.4454 69.8236 27.8672C69.4663 29.245 68.9321 30.4246 68.2175 31.4023H49.3927C49.2141 32.3796 49.0796 33.3133 48.9903 34.2017C48.9457 35.0902 48.9216 35.89 48.9216 36.6008C48.9216 37.0007 48.9457 37.4466 48.9903 37.9354C49.035 38.4237 49.1247 38.8911 49.2585 39.3351C49.4368 39.734 49.6587 40.0891 49.9258 40.3995C50.2385 40.6662 50.6656 40.7999 51.2015 40.7999C51.6031 40.7996 52.0487 40.6659 52.5394 40.3995C53.0753 40.1329 53.5888 39.7556 54.0801 39.2667C54.616 38.7779 55.1087 38.1777 55.5553 37.4667C56.0463 36.7558 56.4258 35.9561 56.6936 35.0676H67.681L65.9376 42.1996C65.0444 42.7774 64.0174 43.2677 62.8563 43.6677C61.6955 44.0675 60.4677 44.4004 59.1731 44.667C57.8779 44.8892 56.5582 45.0436 55.2184 45.1325C53.879 45.2658 52.6066 45.3343 51.4011 45.3343C49.1681 45.3343 47.0901 45.1354 45.1698 44.7354C43.2497 44.3354 41.5743 43.646 40.1454 42.6684C38.7166 41.6908 37.5789 40.4008 36.7305 38.8013C35.9266 37.1569 35.5235 35.1336 35.5235 32.7337C35.5235 30.5562 35.8579 28.4227 36.5277 26.3341C37.2422 24.2454 38.4038 22.4002 40.0113 20.8003C41.6635 19.1562 43.8527 17.8458 46.5763 16.8681C49.345 15.8905 52.785 15.4002 56.8932 15.4001ZM126.893 15.4001C131.359 15.4001 134.709 16.0898 136.942 17.4671C139.22 18.8448 140.36 21.0018 140.36 23.935C140.36 25.1347 140.181 26.4454 139.824 27.8672C139.466 29.245 138.932 30.4246 138.218 31.4023H119.393C119.214 32.3796 119.08 33.3133 118.991 34.2017C118.946 35.0902 118.922 35.89 118.922 36.6008C118.922 37.0007 118.946 37.4466 118.991 37.9354C119.035 38.4237 119.125 38.8911 119.259 39.3351C119.437 39.734 119.659 40.0891 119.926 40.3995C120.239 40.6662 120.666 40.7999 121.202 40.7999C121.603 40.7996 122.049 40.6659 122.54 40.3995C123.075 40.1329 123.589 39.7556 124.08 39.2667C124.616 38.7779 125.109 38.1777 125.555 37.4667C126.046 36.7558 126.426 35.9561 126.694 35.0676H137.681L135.938 42.1996C135.045 42.7774 134.018 43.2677 132.856 43.6677C131.696 44.0675 130.468 44.4004 129.173 44.667C127.878 44.8892 126.558 45.0436 125.219 45.1325C123.879 45.2658 122.607 45.3343 121.401 45.3343C119.168 45.3343 117.09 45.1354 115.17 44.7354C113.25 44.3354 111.575 43.646 110.146 42.6684C108.717 41.6908 107.579 40.4008 106.731 38.8013C105.927 37.1569 105.524 35.1336 105.524 32.7337C105.524 30.5562 105.858 28.4227 106.528 26.3341C107.242 24.2454 108.404 22.4002 110.012 20.8003C111.664 19.1562 113.853 17.8458 116.576 16.8681C119.345 15.8905 122.785 15.4002 126.893 15.4001ZM19.3874 39.2016H32.9884L31.8501 44.8005H3.71263L12.757 2.4674H27.2935L19.3874 39.2016ZM90.3264 35.7349L100.107 16.1357H107.208L92.0012 44.8005H78.0012L73.3792 16.1357H87.582L90.3264 35.7349ZM154.419 44.8005H140.753L150.265 0H164L154.419 44.8005ZM56.0231 19.9345C55.309 19.9346 54.6395 20.1786 54.0146 20.6669C53.4341 21.1113 52.8966 21.7353 52.4053 22.5353C51.9143 23.2906 51.4692 24.1796 51.0674 25.2013C50.6656 26.1787 50.3279 27.222 50.06 28.3327H57.6978C57.7871 27.7998 57.8768 27.2434 57.9661 26.6661C58.0552 26.1776 58.1242 25.645 58.1689 25.0678C58.2582 24.4901 58.2997 23.9552 58.2997 23.4663C58.2996 22.0893 58.0788 21.1556 57.6324 20.6669C57.1858 20.178 56.6483 19.9345 56.0231 19.9345ZM126.023 19.9345C125.309 19.9346 124.64 20.1786 124.015 20.6669C123.434 21.1113 122.897 21.7353 122.405 22.5353C121.915 23.2906 121.469 24.1796 121.068 25.2013C120.666 26.1787 120.328 27.222 120.06 28.3327H127.698C127.787 27.7998 127.877 27.2434 127.966 26.6661C128.055 26.1776 128.124 25.645 128.169 25.0678C128.258 24.4901 128.3 23.9552 128.3 23.4663C128.3 22.0893 128.079 21.1556 127.633 20.6669C127.186 20.178 126.649 19.9345 126.023 19.9345Z" fill="white"/>
</svg>
